<svg xmlns="http://www.w3.org/2000/svg" xmlns:xlink="http://www.w3.org/1999/xlink" width="480" zoomAndPan="magnify" viewBox="0 0 360 359.999987" height="480" preserveAspectRatio="xMidYMid meet" version="1.0"><defs><clipPath id="dd3698d5c0"><path d="M 13 98 L 341 98 L 341 253 L 13 253 Z M 13 98 " clip-rule="nonzero"/></clipPath><clipPath id="63e9976f90"><path d="M 367.589844 148.703125 L 242.535156 381.203125 L -34.222656 232.339844 L 90.835938 -0.160156 Z M 367.589844 148.703125 " clip-rule="nonzero"/></clipPath><clipPath id="47d8c9473f"><path d="M 367.589844 148.703125 L 242.535156 381.203125 L -34.222656 232.339844 L 90.835938 -0.160156 Z M 367.589844 148.703125 " clip-rule="nonzero"/></clipPath><clipPath id="c26f0a3dbb"><path d="M 10 96 L 343 96 L 343 256 L 10 256 Z M 10 96 " clip-rule="nonzero"/></clipPath><clipPath id="4f4f84b8a3"><path d="M 367.589844 148.703125 L 242.535156 381.203125 L -34.222656 232.339844 L 90.835938 -0.160156 Z M 367.589844 148.703125 " clip-rule="nonzero"/></clipPath><clipPath id="3a18280700"><path d="M 367.589844 148.703125 L 242.535156 381.203125 L -34.222656 232.339844 L 90.835938 -0.160156 Z M 367.589844 148.703125 " clip-rule="nonzero"/></clipPath><clipPath id="251322d10b"><path d="M 297 157 L 323 157 L 323 179 L 297 179 Z M 297 157 " clip-rule="nonzero"/></clipPath><clipPath id="3efa96420c"><path d="M 367.589844 148.703125 L 242.535156 381.203125 L -34.222656 232.339844 L 90.835938 -0.160156 Z M 367.589844 148.703125 " clip-rule="nonzero"/></clipPath><clipPath id="f15217cb68"><path d="M 367.589844 148.703125 L 242.535156 381.203125 L -34.222656 232.339844 L 90.835938 -0.160156 Z M 367.589844 148.703125 " clip-rule="nonzero"/></clipPath><clipPath id="61a3c7ac66"><path d="M 283 134 L 309 134 L 309 156 L 283 156 Z M 283 134 " clip-rule="nonzero"/></clipPath><clipPath id="25a32bbb79"><path d="M 367.589844 148.703125 L 242.535156 381.203125 L -34.222656 232.339844 L 90.835938 -0.160156 Z M 367.589844 148.703125 " clip-rule="nonzero"/></clipPath><clipPath id="ea4ce0dedd"><path d="M 367.589844 148.703125 L 242.535156 381.203125 L -34.222656 232.339844 L 90.835938 -0.160156 Z M 367.589844 148.703125 " clip-rule="nonzero"/></clipPath><clipPath id="4a6d1d8ac7"><path d="M 294 186 L 319 186 L 319 209 L 294 209 Z M 294 186 " clip-rule="nonzero"/></clipPath><clipPath id="dc0666a1d5"><path d="M 367.589844 148.703125 L 242.535156 381.203125 L -34.222656 232.339844 L 90.835938 -0.160156 Z M 367.589844 148.703125 " clip-rule="nonzero"/></clipPath><clipPath id="0a711da130"><path d="M 367.589844 148.703125 L 242.535156 381.203125 L -34.222656 232.339844 L 90.835938 -0.160156 Z M 367.589844 148.703125 " clip-rule="nonzero"/></clipPath><clipPath id="64dc2c58aa"><path d="M 276 206 L 301 206 L 301 229 L 276 229 Z M 276 206 " clip-rule="nonzero"/></clipPath><clipPath id="9e6c893411"><path d="M 367.589844 148.703125 L 242.535156 381.203125 L -34.222656 232.339844 L 90.835938 -0.160156 Z M 367.589844 148.703125 " clip-rule="nonzero"/></clipPath><clipPath id="198f5d7ac4"><path d="M 367.589844 148.703125 L 242.535156 381.203125 L -34.222656 232.339844 L 90.835938 -0.160156 Z M 367.589844 148.703125 " clip-rule="nonzero"/></clipPath><clipPath id="5379f1886c"><path d="M 245 144 L 290 144 L 290 213 L 245 213 Z M 245 144 " clip-rule="nonzero"/></clipPath><clipPath id="428629308f"><path d="M 367.589844 148.703125 L 242.535156 381.203125 L -34.222656 232.339844 L 90.835938 -0.160156 Z M 367.589844 148.703125 " clip-rule="nonzero"/></clipPath><clipPath id="6749089ea8"><path d="M 367.589844 148.703125 L 242.535156 381.203125 L -34.222656 232.339844 L 90.835938 -0.160156 Z M 367.589844 148.703125 " clip-rule="nonzero"/></clipPath></defs><g clip-path="url(#dd3698d5c0)"><g clip-path="url(#63e9976f90)"><g clip-path="url(#47d8c9473f)"><path fill="#eee9c7" d="M 127.996094 241.378906 C 150.945312 238.363281 173.324219 239.671875 197.226562 240.035156 C 225.441406 240.460938 254.535156 240.59375 282.363281 235.28125 C 292.519531 233.339844 304.839844 231.285156 313.652344 225.449219 C 320.691406 220.78125 322.371094 212.933594 327.609375 208.640625 C 341.027344 197.628906 343.996094 182.203125 335.421875 170.421875 C 351.289062 139.941406 284.117188 118.972656 253.058594 110.574219 C 184.269531 91.972656 118.941406 97.414062 41.296875 108.003906 C 32.128906 109.253906 29.25 119.242188 29.398438 126.648438 C 27.992188 128.636719 26.96875 130.804688 26.644531 133.023438 C 22.367188 162.585938 4.75 198.167969 18.160156 227.679688 C 37.890625 271.09375 93.886719 245.863281 127.996094 241.378906 Z M 127.996094 241.378906 " fill-opacity="1" fill-rule="nonzero"/></g></g></g><g clip-path="url(#c26f0a3dbb)"><g clip-path="url(#4f4f84b8a3)"><g clip-path="url(#3a18280700)"><path fill="#231f20" d="M 29.925781 113.644531 C 32.378906 109.085938 36.203125 106.332031 40.980469 105.679688 C 112.074219 95.984375 181.839844 88.886719 253.671875 108.308594 C 302.683594 121.566406 331.171875 136.582031 338.347656 152.945312 C 340.835938 158.625 340.765625 164.425781 338.132812 170.214844 C 343.800781 178.835938 344.132812 189.144531 338.984375 198.710938 C 336.667969 203.019531 333.339844 206.96875 329.097656 210.453125 C 327.085938 212.101562 325.578125 214.503906 323.984375 217.046875 C 321.792969 220.546875 319.308594 224.507812 314.945312 227.402344 C 306.292969 233.136719 294.835938 235.304688 284.730469 237.21875 L 282.804688 237.582031 C 255.484375 242.796875 227.871094 242.84375 197.195312 242.378906 C 192.769531 242.3125 188.398438 242.214844 184.066406 242.113281 C 164.917969 241.679688 146.832031 241.265625 128.300781 243.707031 C 121.347656 244.617188 113.417969 246.421875 105.027344 248.328125 C 72.699219 255.671875 32.464844 264.816406 16.027344 228.652344 C 6.109375 206.820312 12.398438 182.496094 18.476562 158.972656 C 20.867188 149.734375 23.121094 141.007812 24.324219 132.6875 C 24.648438 130.460938 25.566406 128.179688 27.054688 125.929688 C 27.078125 121.460938 28.109375 117.023438 29.925781 113.644531 Z M 334.851562 196.488281 C 339.347656 188.132812 338.863281 179.132812 333.527344 171.800781 L 332.675781 170.628906 L 333.34375 169.339844 C 335.925781 164.378906 336.15625 159.632812 334.050781 154.828125 C 329.527344 144.519531 311.699219 128.863281 252.445312 112.839844 C 181.460938 93.648438 112.210938 100.703125 41.613281 110.328125 C 38.335938 110.777344 35.792969 112.640625 34.054688 115.867188 C 32.507812 118.75 31.664062 122.660156 31.742188 126.601562 L 31.757812 127.375 L 31.3125 128.003906 C 30.015625 129.835938 29.210938 131.671875 28.964844 133.363281 C 27.726562 141.933594 25.4375 150.78125 23.015625 160.148438 C 17.140625 182.882812 11.0625 206.390625 20.296875 226.714844 C 35.152344 259.398438 71.722656 251.085938 103.988281 243.753906 C 112.488281 241.824219 120.519531 240 127.6875 239.054688 C 146.578125 236.574219 164.835938 236.988281 184.171875 237.429688 C 188.492188 237.527344 192.851562 237.625 197.265625 237.691406 C 227.679688 238.148438 255.042969 238.109375 281.925781 232.976562 L 283.855469 232.609375 C 293.527344 230.777344 304.492188 228.703125 312.355469 223.492188 C 315.875 221.160156 317.976562 217.804688 320.011719 214.558594 C 321.738281 211.804688 323.519531 208.960938 326.121094 206.828125 C 329.890625 203.734375 332.828125 200.257812 334.851562 196.488281 Z M 334.851562 196.488281 " fill-opacity="1" fill-rule="nonzero"/></g></g></g><g clip-path="url(#251322d10b)"><g clip-path="url(#3efa96420c)"><g clip-path="url(#f15217cb68)"><path fill="#3e231c" d="M 297.488281 170.203125 C 298.671875 175.972656 304.269531 179.726562 309.992188 178.558594 C 315.707031 177.398438 323.390625 170.953125 322.214844 165.144531 C 321.039062 159.359375 311.433594 156.4375 305.714844 157.59375 C 299.992188 158.796875 296.308594 164.417969 297.488281 170.203125 Z M 297.488281 170.203125 " fill-opacity="1" fill-rule="nonzero"/></g></g></g><g clip-path="url(#61a3c7ac66)"><g clip-path="url(#25a32bbb79)"><g clip-path="url(#ea4ce0dedd)"><path fill="#3e231c" d="M 296.167969 155.601562 C 301.878906 154.417969 309.574219 147.988281 308.390625 142.183594 C 307.207031 136.40625 297.601562 133.488281 291.898438 134.648438 C 286.15625 135.816406 282.488281 141.457031 283.667969 147.230469 C 284.84375 153.023438 290.433594 156.773438 296.167969 155.601562 Z M 296.167969 155.601562 " fill-opacity="1" fill-rule="nonzero"/></g></g></g><g clip-path="url(#4a6d1d8ac7)"><g clip-path="url(#dc0666a1d5)"><g clip-path="url(#0a711da130)"><path fill="#3e231c" d="M 295.207031 193.398438 C 292.9375 198.835938 295.453125 205.082031 300.832031 207.339844 C 306.222656 209.597656 316.214844 208.605469 318.496094 203.140625 C 320.765625 197.714844 314.484375 189.859375 309.101562 187.609375 C 303.714844 185.339844 297.5 187.941406 295.207031 193.398438 Z M 295.207031 193.398438 " fill-opacity="1" fill-rule="nonzero"/></g></g></g><g clip-path="url(#64dc2c58aa)"><g clip-path="url(#9e6c893411)"><g clip-path="url(#198f5d7ac4)"><path fill="#3e231c" d="M 300.457031 222.984375 C 302.757812 217.539062 296.464844 209.710938 291.082031 207.445312 C 285.6875 205.207031 279.46875 207.796875 277.199219 213.234375 C 274.914062 218.683594 277.410156 224.929688 282.8125 227.183594 C 288.199219 229.4375 298.183594 228.433594 300.457031 222.984375 Z M 300.457031 222.984375 " fill-opacity="1" fill-rule="nonzero"/></g></g></g><g clip-path="url(#5379f1886c)"><g clip-path="url(#428629308f)"><g clip-path="url(#6749089ea8)"><path fill="#3e231c" d="M 272.929688 200.523438 C 280.394531 198.535156 288.175781 191.09375 289.117188 181.402344 C 290.082031 171.605469 283.820312 162.746094 276.828125 159.402344 C 273.75 148.691406 264.894531 143.882812 257.835938 145.101562 C 250.195312 146.410156 247.824219 155.253906 250.027344 167.929688 C 250.691406 171.796875 249.53125 183.679688 248.125 187.308594 C 243.5 199.34375 244.101562 208.464844 251.355469 211.21875 C 258.121094 213.828125 267.894531 210.726562 272.929688 200.523438 Z M 272.929688 200.523438 " fill-opacity="1" fill-rule="nonzero"/></g></g></g></svg>