<svg xmlns="http://www.w3.org/2000/svg" xmlns:xlink="http://www.w3.org/1999/xlink" width="480" zoomAndPan="magnify" viewBox="0 0 360 359.999987" height="480" preserveAspectRatio="xMidYMid meet" version="1.0"><defs><clipPath id="3c67256684"><path d="M 314 217 L 351.640625 217 L 351.640625 238 L 314 238 Z M 314 217 " clip-rule="nonzero"/></clipPath></defs><path fill="#f2e8cf" d="M 263.640625 96.84375 C 267.632812 93.824219 273.832031 92.230469 278.390625 90.539062 C 281.125 89.527344 286.890625 89.136719 289.628906 90.238281 C 288.871094 94.730469 281.183594 99.699219 277.578125 101.996094 C 275.3125 103.441406 267.953125 106.5 267.402344 108.132812 " fill-opacity="1" fill-rule="nonzero"/><path fill="#f2e8cf" d="M 309.335938 145.765625 C 313.230469 145.765625 317.082031 145.9375 320.839844 145.25 C 323.953125 144.683594 327.589844 142.785156 330.699219 142.914062 C 330.695312 146.226562 326.699219 152.890625 324.375 155.257812 C 320.523438 159.1875 314.90625 160.195312 309.910156 161.6875 " fill-opacity="1" fill-rule="nonzero"/><path fill="#f2e8cf" d="M 324.375 219.585938 C 328.71875 221.386719 333.363281 223.253906 337.734375 225.011719 C 341.167969 226.398438 344.972656 227.0625 347.976562 229.140625 C 344.449219 231.738281 340.132812 235.542969 335.664062 236.101562 C 330.53125 236.742188 325.398438 235.527344 320.332031 235.511719 " fill-opacity="1" fill-rule="nonzero"/><path fill="#f2e8cf" d="M 283.304688 271.984375 C 285.664062 273.207031 288.636719 274.441406 290.765625 276.019531 C 291.800781 276.785156 292.40625 278.226562 293.417969 278.875 C 294.460938 279.546875 295.878906 279.375 296.917969 280.089844 C 297.542969 280.523438 298.804688 282.277344 299.140625 283.054688 C 300.027344 285.128906 300.253906 284.859375 298.054688 286.089844 C 288.828125 291.261719 277.339844 286.464844 268.269531 285.011719 " fill-opacity="1" fill-rule="nonzero"/><path fill="#4c4040" d="M 230.351562 289.566406 C 244.832031 291.609375 259.371094 288.90625 270.742188 279.320312 C 284.101562 268.0625 278.683594 254.816406 270.34375 243.644531 C 288.921875 245.84375 309.164062 246.355469 317.117188 225.992188 C 320.929688 216.242188 317.636719 206.0625 310.089844 199.359375 C 302.480469 192.589844 291.785156 194.265625 282.527344 193.890625 C 274.757812 193.570312 286.34375 188.945312 288.289062 188.25 C 292.289062 186.828125 295.800781 185.394531 299.320312 182.960938 C 308.164062 176.859375 309.675781 164.832031 306.992188 155.289062 C 301.066406 134.15625 280.855469 132.6875 262.316406 135.429688 C 266.09375 130.640625 269.304688 125 271.199219 120.785156 C 275.75 110.664062 271.34375 100.027344 262.65625 94.175781 C 242.289062 80.453125 214.667969 94.160156 197.46875 106.144531 C 185.070312 114.789062 173.390625 123.988281 159.859375 130.910156 C 144.53125 138.765625 128.335938 141.082031 111.519531 143.472656 C 92.570312 146.171875 91.972656 141.363281 65.984375 141.363281 C 54.191406 141.363281 31.691406 144.324219 19.910156 143.929688 C 17.25 142.726562 12.710938 142.734375 9.71875 143.78125 C 8.09375 143.789062 8.695312 193.535156 9.140625 216.40625 C 9.394531 229.488281 7.679688 259.390625 16.234375 259.390625 C 21.390625 259.390625 56.632812 258.3125 69.652344 257.144531 C 97.082031 254.695312 127.339844 249.371094 149.847656 251.078125 C 187.363281 253.917969 194.0625 284.460938 230.351562 289.566406 " fill-opacity="1" fill-rule="nonzero"/><path fill="#eee9c7" d="M 61.460938 257.234375 C 64.644531 256.171875 89.03125 257.441406 92.375 257.078125 C 131.933594 252.738281 71.507812 252.742188 78.152344 250.933594 C 81.402344 250.050781 97.035156 245.449219 100.300781 244.625 C 103.167969 243.898438 106.171875 243.367188 108.886719 242.152344 C 109.527344 241.867188 110.164062 241.5625 110.746094 241.171875 C 111.054688 240.960938 111.359375 240.753906 111.632812 240.507812 C 111.972656 240.203125 111.726562 240.320312 111.347656 240.320312 L 96.476562 240.320312 C 96.367188 240.320312 96.324219 240.171875 96.417969 240.117188 C 102.386719 236.835938 109.054688 235.070312 115.019531 231.792969 C 115.742188 231.394531 116.464844 230.984375 117.164062 230.539062 C 117.753906 230.15625 117.105469 229.832031 116.707031 229.597656 C 116.4375 229.433594 116.160156 229.273438 115.878906 229.144531 C 114.339844 228.4375 112.679688 228.097656 110.992188 227.996094 C 107.808594 227.8125 104.636719 228.210938 101.453125 228.226562 C 101.351562 228.226562 101.304688 228.070312 101.398438 228.023438 C 103.332031 227.023438 105.015625 225.628906 106.902344 224.550781 C 107.785156 224.054688 108.707031 223.570312 109.679688 223.28125 C 110.449219 223.058594 110.449219 223.082031 109.695312 222.738281 C 109.160156 222.496094 108.625 222.273438 108.070312 222.097656 C 103.410156 220.613281 98.449219 221.097656 93.632812 221.113281 C 93.5 221.113281 93.496094 220.941406 93.605469 220.898438 C 97.015625 219.535156 100.503906 218.371094 103.929688 217.039062 C 104.410156 216.851562 105.457031 216.511719 104.6875 215.886719 C 104.050781 215.375 103.375 214.910156 102.636719 214.558594 C 101.1875 213.867188 99.632812 213.476562 98.046875 213.300781 C 92.257812 212.675781 86.15625 213.980469 80.78125 211.132812 L 80.78125 210.945312 C 85.484375 207.351562 91.339844 206.023438 96.601562 203.515625 C 97.910156 202.894531 99.203125 202.222656 100.402344 201.410156 C 101.140625 200.914062 101.863281 200.390625 102.539062 199.804688 C 102.78125 199.597656 100.992188 198.796875 100.816406 198.722656 C 97.613281 197.351562 94.175781 196.773438 90.761719 196.207031 L 90.714844 196.019531 C 93.851562 192.984375 98.332031 192.492188 102.332031 191.253906 C 102.890625 191.078125 103.449219 190.902344 103.996094 190.691406 C 104.65625 190.441406 104.894531 190.523438 104.175781 190.246094 C 103.320312 189.902344 102.523438 189.355469 101.789062 188.804688 C 100.320312 187.6875 98.914062 186.183594 97.160156 185.535156 C 97.078125 185.503906 97.035156 185.375 97.132812 185.332031 C 101.433594 183.460938 106.089844 182.832031 110.636719 181.820312 C 111.859375 181.550781 113.089844 181.261719 114.292969 180.894531 C 114.886719 180.714844 115.476562 180.53125 116.058594 180.316406 C 116.160156 180.28125 117.574219 179.6875 117.480469 179.617188 C 115.785156 178.304688 113.878906 177.300781 111.859375 176.582031 C 104.355469 173.925781 96.285156 174.601562 88.632812 172.722656 C 88.515625 172.699219 88.539062 172.550781 88.632812 172.515625 C 91.523438 171.359375 94.425781 170.195312 97.316406 169.035156 C 97.742188 168.867188 99.378906 168.527344 98.839844 167.976562 C 98.480469 167.621094 98.121094 167.273438 97.722656 166.964844 C 96.714844 166.1875 95.605469 165.546875 94.429688 165.070312 C 90.328125 163.4375 85.886719 163.300781 81.550781 162.765625 C 81.445312 162.753906 81.394531 162.625 81.496094 162.566406 C 83.402344 161.4375 85.453125 160.59375 87.449219 159.628906 C 88.449219 159.148438 89.449219 158.652344 90.390625 158.0625 C 90.917969 157.730469 91.445312 157.386719 91.933594 156.992188 C 92.027344 156.914062 92.734375 156.363281 92.542969 156.363281 L 77.285156 156.363281 L 77.207031 156.179688 C 80.785156 152.953125 85.511719 151.460938 90.195312 150.75 C 95.257812 149.980469 100.386719 149.964844 105.496094 149.933594 C 107.851562 149.917969 110.210938 149.910156 112.566406 149.761719 C 111.796875 149.808594 110.304688 149.03125 109.390625 148.753906 C 108.234375 148.40625 107.074219 148.089844 105.902344 147.792969 C 100.675781 146.496094 95.332031 145.558594 90.222656 143.839844 C 89.3125 143.535156 88.417969 143.207031 87.527344 142.84375 C 82.507812 142.105469 76.214844 141.363281 65.984375 141.363281 C 54.191406 141.363281 31.691406 144.324219 19.910156 143.929688 C 17.25 142.726562 12.710938 142.734375 9.71875 143.78125 C 8.09375 143.789062 8.695312 193.535156 9.140625 216.40625 C 9.394531 229.488281 7.679688 259.390625 16.234375 259.390625 C 20.355469 259.390625 43.679688 258.699219 59.53125 257.828125 C 60.175781 257.632812 60.820312 257.441406 61.460938 257.234375 " fill-opacity="1" fill-rule="nonzero"/><path fill="#3e231c" d="M 222.09375 139.203125 C 227.519531 137.617188 241.4375 131.414062 246.882812 124.085938 C 247.035156 123.992188 247.167969 123.898438 247.25 123.804688 C 256.457031 113.042969 240.636719 101.449219 230.183594 103.351562 C 217.824219 105.597656 203.320312 115.773438 199.664062 128.347656 C 195.726562 141.859375 214.339844 141.480469 222.09375 139.203125 " fill-opacity="1" fill-rule="nonzero"/><path fill="#3e231c" d="M 248.859375 253.273438 C 244.480469 249.6875 237.03125 240.023438 227.914062 239.65625 C 227.753906 239.574219 227.601562 239.519531 227.472656 239.503906 C 213.40625 237.972656 210.289062 257.945312 217.753906 265.511719 C 226.574219 274.457031 233.207031 281.277344 245.640625 277.214844 C 259.011719 272.839844 255.101562 258.394531 248.859375 253.273438 " fill-opacity="1" fill-rule="nonzero"/><path fill="#3e231c" d="M 263.246094 179.675781 C 268.046875 178.242188 280.355469 172.664062 285.167969 166.078125 C 285.308594 165.992188 285.429688 165.910156 285.5 165.828125 C 293.636719 156.144531 279.644531 145.71875 270.398438 147.433594 C 259.472656 149.453125 250.632812 155.382812 247.394531 166.691406 C 243.914062 178.847656 256.394531 181.714844 263.246094 179.675781 " fill-opacity="1" fill-rule="nonzero"/><path fill="#3e231c" d="M 259.761719 226.242188 C 264.160156 228.632812 276.800781 233.421875 284.859375 232.1875 C 285.019531 232.226562 285.15625 232.253906 285.269531 232.242188 C 297.863281 231.175781 301.804688 215.886719 294.074219 210.539062 C 284.925781 204.21875 260.832031 201.683594 250.554688 207.371094 C 239.488281 213.484375 253.476562 222.824219 259.761719 226.242188 " fill-opacity="1" fill-rule="nonzero"/><path fill="#231f20" d="M 6.226562 139.800781 C 36.148438 140.875 66.085938 139.816406 96.007812 140.839844 C 122.707031 141.746094 150.378906 144.695312 173.304688 128.386719 C 192.5 114.742188 207.679688 93.539062 232.5625 90.332031 C 245.976562 88.605469 263.332031 94.527344 267.695312 108.613281 C 271.734375 121.667969 262.394531 130.226562 253.542969 137.863281 C 254.710938 138.078125 254.875 138.164062 254.023438 138.121094 C 254.703125 138.609375 255.378906 139.097656 256.050781 139.589844 C 264.996094 133.011719 275.535156 129.585938 286.488281 132.578125 C 294.808594 134.855469 301.914062 140.972656 306.035156 148.453125 C 309.964844 155.601562 310.347656 164.183594 306.660156 171.484375 C 301.082031 182.542969 287.574219 187.527344 276.226562 189.808594 C 273.386719 190.378906 275.558594 191.792969 277.394531 191.558594 C 289.449219 190.035156 302.4375 190.605469 312.320312 198.484375 C 318.28125 203.238281 321.375 210.679688 321.128906 218.210938 C 320.796875 228.457031 314.144531 237.734375 304.90625 241.757812 C 294.433594 246.316406 281.78125 244.023438 271.378906 240.507812 C 270.703125 240.28125 266.238281 240.613281 267.882812 241.785156 C 276.941406 248.222656 283.914062 258.121094 280.097656 269.570312 C 276.214844 281.238281 262.859375 287.328125 251.6875 289.277344 C 238.96875 291.496094 226.558594 286.15625 215.59375 280.273438 C 205.082031 274.632812 195.074219 268.132812 184.257812 263.054688 C 160.894531 252.09375 133.894531 252.855469 108.71875 254.527344 C 85.820312 256.046875 63.15625 260.59375 40.207031 260.980469 C 33.074219 261.097656 25.976562 261.195312 18.863281 261.734375 C 16.875 261.886719 16.875 263.21875 18.898438 263.214844 C 32.6875 263.1875 46.511719 263.730469 60.234375 262.117188 C 70.371094 260.917969 80.476562 259.503906 90.625 258.414062 C 117.417969 255.539062 147.898438 252.351562 173.730469 261.796875 C 195.753906 269.847656 213.933594 287.535156 237.554688 291.335938 C 255.320312 294.195312 281.371094 286.617188 285.765625 266.691406 C 288.152344 255.820312 279.953125 246.4375 271.730469 240.699219 C 270.566406 241.121094 269.402344 241.546875 268.238281 241.972656 C 289.6875 249.191406 322.574219 248.664062 325.996094 219.742188 C 327.109375 210.320312 322.046875 201.542969 314.59375 196.160156 C 303.78125 188.363281 288.871094 188.246094 276.226562 189.808594 C 276.617188 190.390625 277.003906 190.976562 277.394531 191.558594 C 289.859375 189.097656 303.253906 184.625 310.398438 173.296875 C 315.625 164.996094 314.503906 154.667969 309.714844 146.488281 C 297.53125 125.667969 269.785156 125.632812 252.050781 138.667969 C 250.710938 139.652344 253.597656 140.132812 254.074219 140.132812 C 257.414062 140.132812 259.871094 136.816406 262.230469 134.769531 C 266.097656 131.417969 269.550781 127.722656 271.652344 123 C 276.328125 112.472656 270.972656 101.367188 262.296875 95.132812 C 244.046875 82.007812 219.171875 88.601562 202.300781 100.382812 C 192.902344 106.945312 184.738281 115.15625 175.980469 122.515625 C 165.0625 131.699219 153.761719 137.363281 139.460938 139.136719 C 123.285156 141.140625 106.753906 139.328125 90.542969 138.792969 C 76.164062 138.320312 61.761719 138.476562 47.371094 138.539062 C 33.792969 138.601562 20.195312 138.632812 6.609375 138.441406 C 5.214844 138.425781 4.429688 139.730469 6.226562 139.800781 " fill-opacity="1" fill-rule="nonzero"/><path fill="#231f20" d="M 248.507812 112.320312 C 249.410156 107.242188 243.949219 103.8125 239.605469 103.1875 C 233.167969 102.261719 226.710938 104.25 220.894531 106.871094 C 210.40625 111.589844 195.089844 122.867188 200.789062 136.261719 C 205.527344 147.421875 226.085938 139.710938 232.945312 136.011719 C 241.789062 131.242188 261.421875 111.605469 243.359375 105.984375 C 243.0625 105.894531 241.253906 106.140625 241.929688 106.503906 C 255.621094 113.835938 241.253906 128.453125 233.003906 133.699219 C 225.691406 138.347656 206.441406 147.402344 202.839844 134.417969 C 199.785156 123.414062 211.324219 114.617188 219.492188 109.941406 C 224.429688 107.113281 230.054688 104.804688 235.789062 104.519531 C 241.957031 104.214844 243.609375 108.03125 246.308594 112.507812 C 246.628906 113.039062 248.382812 113.007812 248.507812 112.320312 " fill-opacity="1" fill-rule="nonzero"/><path fill="#231f20" d="M 287 157.132812 C 285.609375 153.679688 284.796875 151.550781 281.589844 149.382812 C 279.128906 147.714844 276.171875 146.972656 273.253906 146.683594 C 266.816406 146.042969 260.410156 148.535156 255.011719 151.820312 C 247.710938 156.269531 234.027344 170.746094 246.996094 176.925781 L 247.1875 176.855469 C 239.074219 170.761719 248.910156 159.460938 254.085938 155.199219 C 258.597656 151.476562 264.332031 148.597656 270.226562 148.164062 C 276.625 147.6875 282.878906 152.210938 286.53125 157.203125 C 286.605469 157.308594 287.066406 157.296875 287 157.132812 " fill-opacity="1" fill-rule="nonzero"/><path fill="#231f20" d="M 243.890625 174.394531 C 246.433594 179.039062 254.527344 179.738281 259.199219 179.925781 C 265.472656 180.179688 271.804688 178.898438 277.601562 176.53125 C 282.839844 174.398438 288.152344 170.753906 290.433594 165.394531 C 292.761719 159.914062 289.476562 153.863281 284.726562 151.019531 C 284.625 150.957031 283.96875 150.914062 284.09375 151.152344 C 286.417969 155.476562 289.714844 158.535156 288.753906 163.871094 C 287.855469 168.816406 283.015625 172.378906 278.945312 174.65625 C 273.632812 177.617188 267.484375 179.097656 261.449219 179.40625 C 254.835938 179.742188 249.972656 177.234375 244.363281 174.261719 C 244.285156 174.21875 243.792969 174.21875 243.890625 174.394531 " fill-opacity="1" fill-rule="nonzero"/><path fill="#231f20" d="M 300.5625 216.917969 C 298.6875 211.679688 292.832031 208.625 288.09375 206.363281 C 281.589844 203.25 274.480469 201.6875 267.289062 201.464844 C 258.839844 201.199219 242.605469 206.277344 247.371094 217.773438 C 251.578125 227.910156 267.339844 231.855469 276.964844 232.945312 C 281.941406 233.507812 287.183594 233.023438 291.6875 230.738281 C 294.316406 229.394531 296.871094 226.988281 298.789062 224.800781 C 301.90625 221.234375 302.3125 218.507812 299.335938 214.78125 C 299.148438 214.546875 298.066406 214.558594 298.238281 214.941406 C 301.277344 221.785156 295.644531 227.628906 289.75 230.640625 C 285.074219 233.023438 279.121094 232.695312 274.082031 232.023438 C 265.320312 230.855469 254.050781 226.226562 249.410156 218.183594 C 247.246094 214.429688 248.558594 210.507812 251.363281 207.554688 C 255.84375 202.839844 263.398438 202.472656 269.453125 202.878906 C 280.40625 203.617188 292.929688 207.996094 299.738281 217.039062 C 299.875 217.222656 300.671875 217.222656 300.5625 216.917969 " fill-opacity="1" fill-rule="nonzero"/><path fill="#231f20" d="M 256.148438 256.476562 C 253.886719 250.894531 247.890625 247.144531 242.902344 244.203125 C 237.875 241.238281 232.226562 239.09375 226.363281 238.742188 C 213.625 237.976562 208.839844 250.652344 213.148438 261.445312 C 217.441406 272.191406 231.382812 279.839844 242.574219 279.667969 C 256.875 279.441406 264.28125 260.191406 252.125 251.402344 C 251.804688 251.171875 250.183594 251.082031 250.421875 251.757812 C 251.675781 255.3125 254.597656 257.554688 255.410156 261.472656 C 256.074219 264.640625 254.867188 268.414062 253.660156 271.296875 C 251.277344 277 245.882812 279.335938 239.96875 278.933594 C 229.304688 278.203125 218.484375 269.621094 215.273438 259.492188 C 213.8125 254.875 214.394531 248.886719 216.714844 244.671875 C 219.300781 239.972656 224.9375 239.738281 229.554688 240.71875 C 239.871094 242.90625 247.761719 249.992188 255.519531 256.609375 C 255.632812 256.707031 256.246094 256.714844 256.148438 256.476562 " fill-opacity="1" fill-rule="nonzero"/><path fill="#231f20" d="M 208.074219 168.320312 C 218.441406 171.097656 228.015625 176.378906 233.175781 186.171875 C 238.316406 195.917969 234.367188 204.980469 226.433594 211.625 C 222.816406 214.652344 217.289062 215 213.332031 217.707031 C 209.316406 220.457031 208.582031 225.84375 206.519531 229.902344 C 202.757812 237.324219 191.140625 237.785156 184.382812 235.585938 C 177.617188 233.386719 173.460938 227.554688 172.507812 220.707031 C 171.789062 215.53125 172.5 210.128906 172.125 204.902344 C 171.667969 198.625 169.535156 192.605469 167.632812 186.65625 C 164.855469 177.96875 162.164062 168.09375 167.035156 159.628906 C 170.28125 153.984375 177.917969 151.699219 184.003906 152.972656 C 188.65625 153.949219 192.4375 157.8125 195.753906 160.960938 C 202.472656 167.339844 207.957031 170.496094 217.289062 171.019531 C 217.320312 171.019531 217.484375 170.980469 217.382812 170.941406 C 212.203125 168.929688 207.324219 167.789062 202.90625 164.1875 C 198.957031 160.972656 195.667969 157.074219 191.398438 154.238281 C 184.425781 149.605469 174.832031 150.523438 168.015625 154.957031 C 159.777344 160.3125 160.496094 171.65625 162.433594 179.925781 C 163.984375 186.589844 166.621094 192.933594 168.074219 199.632812 C 169.59375 206.628906 168.601562 213.742188 169.507812 220.78125 C 170.867188 231.316406 181.089844 237.472656 191.085938 237.542969 C 195.863281 237.574219 200.5625 236.726562 204.746094 234.332031 C 209.644531 231.539062 210.304688 225.914062 212.746094 221.320312 C 215.726562 215.710938 223.417969 215.34375 228.242188 212.042969 C 232.550781 209.09375 235.9375 204.363281 237.363281 199.382812 C 239.976562 190.25 234.390625 181.617188 227.742188 175.945312 C 222.53125 171.503906 215.757812 168.664062 209.046875 167.558594 C 208.472656 167.464844 206.800781 167.980469 208.074219 168.320312 " fill-opacity="1" fill-rule="nonzero"/><path fill="#3e231c" d="M 202.832031 232.804688 C 207.257812 229.378906 212.105469 221.160156 215.183594 216.539062 C 219.65625 209.800781 226.796875 213.265625 232.125 207.238281 C 239.480469 198.925781 235.800781 187.917969 226.976562 179.683594 C 220.46875 173.601562 205.761719 173.648438 199.121094 163.554688 C 194.582031 156.632812 169.644531 148.222656 165.410156 167.394531 C 164.21875 172.78125 168.117188 179.785156 169.871094 184.746094 C 172.269531 191.535156 175.347656 198.386719 175.277344 205.707031 C 175.199219 214.230469 171.976562 228.285156 180.097656 233.578125 C 185.839844 237.316406 197.449219 236.972656 202.832031 232.804688 " fill-opacity="1" fill-rule="nonzero"/><path fill="#231f20" d="M 264.414062 95.828125 C 267.476562 94.671875 270.394531 93.15625 273.441406 91.953125 C 275.765625 91.035156 278.15625 90.152344 280.613281 89.6875 C 283.597656 88.859375 286.351562 89.523438 288.867188 91.683594 C 287.960938 92.476562 287.042969 93.253906 286.121094 94.023438 C 280.976562 98.324219 274.441406 102.910156 270.550781 108.394531 C 270.410156 108.585938 271.066406 108.5625 271.164062 108.488281 C 275.269531 105.503906 278.828125 101.996094 283.117188 99.207031 C 286.539062 96.980469 289.894531 93.953125 292.570312 90.878906 C 292.835938 90.574219 292.167969 90.332031 292 90.296875 C 281.714844 88.019531 271.03125 88.789062 262.058594 95.097656 C 260.992188 95.851562 263.972656 95.996094 264.414062 95.828125 " fill-opacity="1" fill-rule="nonzero"/><path fill="#231f20" d="M 303.371094 144.621094 C 312.714844 145.515625 323.589844 144.671875 332.03125 140.269531 C 331.460938 140.175781 330.890625 140.089844 330.320312 140 C 333.175781 152.832031 315.90625 158.8125 307.226562 162.980469 C 306.742188 163.214844 307.554688 163.382812 307.746094 163.351562 C 318.773438 161.539062 332.570312 152.105469 332.3125 139.953125 C 332.300781 139.339844 330.90625 139.554688 330.605469 139.6875 C 321.511719 143.503906 312.910156 143.125 303.355469 144.023438 C 302.714844 144.082031 302.757812 144.5625 303.371094 144.621094 " fill-opacity="1" fill-rule="nonzero"/><g clip-path="url(#3c67256684)"><path fill="#231f20" d="M 322.933594 217.726562 C 327.394531 221.5 333.15625 223.1875 338.707031 224.6875 C 342.007812 225.578125 345.339844 226.328125 348.628906 227.246094 C 351.558594 228.054688 345.355469 232.261719 344.621094 232.6875 C 335.222656 238.074219 324.546875 235.007812 314.539062 235.0625 C 314.472656 235.0625 314.015625 235.179688 314.238281 235.304688 C 319.34375 238.128906 328.53125 236.96875 334.074219 236.414062 C 340.503906 235.777344 348.476562 233.824219 351.527344 227.480469 C 351.648438 227.226562 351.296875 227.117188 351.121094 227.066406 C 341.6875 224.242188 332.667969 222.503906 324.078125 217.398438 C 323.816406 217.238281 322.476562 217.335938 322.933594 217.726562 " fill-opacity="1" fill-rule="nonzero"/></g><path fill="#231f20" d="M 280.960938 270.128906 C 283.5625 272.625 287.5625 274.25 290.609375 276.292969 C 293.984375 278.558594 297.238281 281.136719 300.242188 283.902344 C 303.773438 287.164062 295.429688 287.980469 294.964844 288.074219 C 291.523438 288.761719 288.023438 288.519531 284.570312 288.15625 C 278.992188 287.558594 273.890625 285.277344 268.625 283.554688 C 268.195312 283.410156 266.382812 283.753906 267.335938 284.152344 C 278.015625 288.640625 292.246094 292.496094 303.019531 286.304688 L 303.15625 286.15625 C 302.851562 285.160156 301.480469 284.425781 300.753906 283.753906 C 298.707031 281.871094 296.765625 279.9375 294.644531 278.128906 C 290.789062 274.851562 286.992188 270.894531 281.925781 269.679688 C 281.710938 269.628906 280.519531 269.699219 280.960938 270.128906 " fill-opacity="1" fill-rule="nonzero"/></svg>