<svg xmlns="http://www.w3.org/2000/svg" xmlns:xlink="http://www.w3.org/1999/xlink" width="480" zoomAndPan="magnify" viewBox="0 0 360 359.999987" height="480" preserveAspectRatio="xMidYMid meet" version="1.0"><defs><clipPath id="9311d0a69f"><path d="M 159 3.121094 L 251 3.121094 L 251 181 L 159 181 Z M 159 3.121094 " clip-rule="nonzero"/></clipPath><clipPath id="0004c0cdb5"><path d="M 177 3.121094 L 248 3.121094 L 248 154 L 177 154 Z M 177 3.121094 " clip-rule="nonzero"/></clipPath><clipPath id="165db4cc0e"><path d="M 244 102.386719 L 304.523438 102.386719 L 304.523438 138.476562 L 244 138.476562 Z M 244 102.386719 " clip-rule="nonzero"/></clipPath><clipPath id="15deba8cf6"><path d="M 55.523438 221 L 106 221 L 106 269 L 55.523438 269 Z M 55.523438 221 " clip-rule="nonzero"/></clipPath></defs><g clip-path="url(#9311d0a69f)"><path fill="#000000" d="M 224.519531 3.363281 L 210.335938 29.464844 L 223.945312 33.039062 L 226.25 33.648438 L 224.769531 35.511719 L 204.871094 60.566406 L 219.386719 63.992188 L 221.386719 64.460938 L 220.398438 66.257812 L 200.703125 102.023438 L 206.511719 103.867188 L 208.386719 104.460938 L 207.378906 106.148438 L 195.277344 126.390625 L 212.722656 102.703125 L 206.90625 101.117188 L 204.660156 100.503906 L 206.085938 98.660156 L 235.070312 61.253906 L 225.261719 58.320312 L 222.972656 57.636719 L 224.523438 55.816406 L 245.246094 31.585938 L 230.625 25.597656 L 228.796875 24.851562 L 229.941406 23.253906 L 244.203125 3.363281 L 248.035156 3.363281 L 233.617188 23.472656 L 248.40625 29.527344 L 250.398438 30.347656 L 249.003906 31.976562 L 228.441406 56.019531 L 238.136719 58.917969 L 240.3125 59.570312 L 238.917969 61.363281 L 209.972656 98.71875 L 217.921875 100.886719 L 216.574219 102.714844 L 178.585938 154.296875 L 159.390625 180.363281 L 176 152.578125 L 203.703125 106.242188 L 197.953125 104.421875 L 196.148438 103.847656 L 197.0625 102.1875 L 216.683594 66.550781 L 201.773438 63.035156 L 199.382812 62.472656 L 200.910156 60.554688 L 220.851562 35.441406 L 207.628906 31.96875 L 205.714844 31.46875 L 206.660156 29.722656 L 220.984375 3.363281 L 224.519531 3.363281 " fill-opacity="1" fill-rule="evenodd"/></g><g clip-path="url(#0004c0cdb5)"><path fill="#ffe100" d="M 222.75 3.363281 L 208.023438 30.464844 L 223.550781 34.546875 L 202.128906 61.519531 L 219.035156 65.503906 L 198.421875 102.933594 L 206.046875 105.347656 L 177.332031 153.378906 L 215.320312 101.792969 L 207.316406 99.613281 L 237.691406 60.410156 L 225.707031 56.828125 L 247.824219 30.964844 L 231.210938 24.160156 L 246.121094 3.363281 L 222.75 3.363281 " fill-opacity="1" fill-rule="evenodd"/></g><path fill="#000000" d="M 120.089844 356.878906 L 134.964844 324.769531 L 121.039062 321.160156 L 118.796875 320.578125 L 120.179688 318.722656 L 138.785156 293.796875 L 123.996094 290.347656 L 122.050781 289.898438 L 122.96875 288.117188 L 163.925781 208.382812 L 111.121094 292.667969 L 121.328125 295.671875 L 123.554688 296.328125 L 122.101562 298.136719 L 100.4375 325.003906 L 115.289062 327.953125 L 117.59375 328.410156 L 116.28125 330.351562 L 98.359375 356.878906 L 94.601562 356.878906 L 112.390625 330.550781 L 97.316406 327.554688 L 94.792969 327.050781 L 96.402344 325.050781 L 118.21875 297.996094 L 108.28125 295.070312 L 106.320312 294.492188 L 107.410156 292.757812 L 180.640625 175.859375 L 183.335938 177.394531 L 126.640625 287.769531 L 141.808594 291.304688 L 144.128906 291.847656 L 142.707031 293.75 L 124.058594 318.730469 L 137.550781 322.230469 L 139.351562 322.695312 L 138.570312 324.382812 L 123.519531 356.878906 L 120.089844 356.878906 " fill-opacity="1" fill-rule="evenodd"/><path fill="#ffe100" d="M 121.804688 356.878906 L 137.160156 323.734375 L 121.425781 319.65625 L 141.457031 292.816406 L 124.347656 288.835938 L 181.953125 176.679688 L 108.71875 293.578125 L 120.886719 297.164062 L 97.613281 326.023438 L 114.992188 329.480469 L 96.476562 356.878906 L 121.804688 356.878906 " fill-opacity="1" fill-rule="evenodd"/><path fill="#000000" d="M 213.433594 9.179688 L 199.984375 30.75 L 214.585938 36.195312 L 193.492188 64.039062 L 210.980469 69.089844 L 194.789062 96.507812 L 204.871094 72.277344 L 183.070312 66.566406 L 206.128906 38.335938 L 192.664062 33.691406 L 213.433594 9.179688 " fill-opacity="1" fill-rule="evenodd"/><path fill="#000000" d="M 133.101562 317.027344 L 150.261719 288.382812 L 134.75 283.085938 L 163.785156 223.710938 L 146.046875 276.199219 L 162.25 282.050781 L 133.101562 317.027344 " fill-opacity="1" fill-rule="evenodd"/><path fill="#000000" d="M 104.203125 135.90625 L 102.433594 134.613281 L 93.203125 127.832031 L 103.898438 131.902344 C 106.140625 132.753906 108.300781 133.597656 110.476562 134.449219 C 124.0625 139.765625 138.445312 145.394531 142.847656 142.144531 C 145.164062 140.4375 144.960938 136.003906 143.492188 130.277344 C 141.898438 124.058594 138.773438 116.449219 135.628906 108.984375 L 131.425781 98.996094 L 138.265625 107.398438 C 139.675781 109.136719 140.925781 110.738281 142.175781 112.347656 C 149.066406 121.203125 156.039062 130.171875 162.519531 127.429688 C 169 124.691406 172.320312 105.847656 174.777344 91.871094 C 175.355469 88.605469 175.886719 85.601562 176.429688 82.976562 L 179.796875 66.855469 L 179.503906 83.316406 C 179.347656 92.308594 179.503906 106.914062 181.320312 117.675781 C 182.453125 124.398438 184.121094 129.476562 186.574219 130.222656 C 189.144531 131.011719 195.671875 127.4375 203.386719 122.160156 C 215.554688 113.832031 230.269531 101.3125 237.949219 94.382812 L 254.398438 79.535156 L 240.179688 96.535156 C 232.859375 105.292969 221.96875 119.941406 215.570312 132.042969 C 211.335938 140.046875 209.054688 146.75 211.210938 149.320312 C 215.855469 154.855469 240.945312 151.90625 260.097656 149.65625 C 264.769531 149.105469 269.09375 148.59375 272.894531 148.25 L 286.246094 147.039062 L 273.523438 151.269531 C 270.558594 152.257812 267.070312 153.304688 263.199219 154.46875 C 246.683594 159.441406 223.246094 166.496094 221.707031 173.15625 C 220.320312 179.15625 235.734375 184.625 249.480469 189.507812 C 253.289062 190.859375 256.972656 192.167969 260.234375 193.476562 L 270.886719 197.75 L 259.480469 196.460938 C 255.03125 195.960938 249.558594 194.710938 243.828125 193.40625 C 229.476562 190.136719 213.457031 186.484375 210.144531 193.628906 C 206.398438 201.707031 221.605469 213.347656 231.625 221.015625 C 234.183594 222.972656 236.417969 224.6875 237.960938 226.046875 L 245.472656 232.664062 L 236.316406 228.640625 C 233.6875 227.488281 229.945312 225.425781 225.722656 223.105469 C 214.640625 217.003906 200.125 209.019531 197.039062 211.902344 C 193.574219 215.132812 198.9375 233.726562 203.648438 250.066406 C 205.027344 254.855469 206.355469 259.457031 207.363281 263.371094 L 210.132812 274.097656 L 204.523438 264.546875 C 202.304688 260.769531 200.011719 256.054688 197.644531 251.167969 C 191.421875 238.34375 184.589844 224.269531 178.285156 224.847656 C 171.703125 225.449219 167.757812 239.257812 163.925781 252.675781 C 162.667969 257.085938 161.421875 261.449219 160.027344 265.472656 L 155.742188 277.804688 L 157.011719 264.816406 C 157.335938 261.527344 158 257.402344 158.722656 252.929688 C 161.015625 238.726562 163.894531 220.886719 158.023438 218.320312 C 152.003906 215.691406 127.085938 242.960938 109.582031 262.117188 C 104.355469 267.835938 99.769531 272.847656 96.535156 276.125 L 86.023438 286.773438 L 94.121094 274.195312 C 97.011719 269.699219 101.589844 263.214844 106.703125 255.972656 C 120.925781 235.832031 139.386719 209.679688 136.558594 206.8125 C 133.726562 203.9375 113.847656 213.640625 97.558594 221.585938 C 90.886719 224.839844 84.796875 227.808594 80.539062 229.542969 L 65.714844 235.570312 L 79.101562 226.796875 C 81.941406 224.941406 86.160156 222.457031 90.929688 219.652344 C 106.480469 210.5 128.058594 197.8125 127.429688 191.777344 C 126.707031 184.820312 108.589844 179.90625 93.976562 175.933594 C 92.050781 175.414062 90.183594 174.910156 88.070312 174.3125 L 76.738281 171.113281 L 88.511719 171.261719 C 90.269531 171.28125 92.160156 171.328125 94.171875 171.378906 C 108.15625 171.738281 127.992188 172.242188 130.910156 165.230469 C 134.035156 157.714844 115.160156 143.917969 104.203125 135.90625 " fill-opacity="1" fill-rule="evenodd"/><path fill="#ed1210" d="M 103.355469 133.359375 C 114.25 141.359375 136.132812 156.714844 132.34375 165.828125 C 128.554688 174.941406 102.488281 172.988281 88.492188 172.8125 C 104.046875 177.199219 128.027344 182.507812 128.976562 191.617188 C 129.925781 200.726562 92.5625 219.839844 79.953125 228.101562 C 94.71875 222.097656 132.605469 200.589844 137.664062 205.71875 C 142.726562 210.851562 106.472656 257.878906 95.425781 275.035156 C 109.921875 260.355469 149.5625 212.925781 158.648438 216.898438 C 167.734375 220.867188 159.921875 251.03125 158.558594 264.964844 C 164.160156 248.824219 168.066406 224.21875 178.148438 223.296875 C 188.222656 222.378906 197.742188 249.945312 205.859375 263.761719 C 201.203125 245.730469 190.644531 215.738281 195.980469 210.761719 C 201.316406 205.785156 227.4375 223.042969 236.9375 227.21875 C 229.097656 220.3125 203.429688 204.414062 208.730469 192.976562 C 214.035156 181.535156 243.773438 193.125 259.65625 194.914062 C 244.378906 188.785156 218.042969 182.105469 220.191406 172.808594 C 222.339844 163.507812 258.261719 154.714844 273.035156 149.796875 C 254.382812 151.492188 216.46875 158 210.019531 150.320312 C 203.570312 142.632812 226.46875 110.507812 238.988281 95.539062 C 226.203125 107.082031 193.929688 134.101562 186.121094 131.710938 C 178.3125 129.316406 177.683594 98.410156 177.957031 83.292969 C 175.152344 96.714844 172.0625 125.082031 163.121094 128.863281 C 154.179688 132.640625 145.582031 118.847656 137.0625 108.382812 C 143.390625 123.414062 149.660156 139.046875 143.765625 143.402344 C 137.867188 147.75 118.941406 139.285156 103.355469 133.359375 " fill-opacity="1" fill-rule="evenodd"/><path fill="#000000" d="M 147.199219 70.542969 C 146.058594 66.652344 141.769531 67.855469 143.160156 72.53125 L 170.59375 158.664062 L 147.199219 70.542969 " fill-opacity="1" fill-rule="evenodd"/><path fill="#000000" d="M 297.007812 199.550781 C 300.902344 200.675781 302.589844 194.371094 297.902344 193.039062 L 239.445312 180.976562 L 297.007812 199.550781 " fill-opacity="1" fill-rule="evenodd"/><path fill="#f58214" d="M 167.53125 223.722656 C 170.023438 214.667969 172.621094 201.539062 176.160156 201.359375 C 179.128906 201.210938 185.691406 212.257812 189.324219 221.746094 C 186.191406 211.238281 182.785156 198.441406 185.503906 195.90625 C 187.867188 193.703125 210.292969 210.070312 217.96875 214.601562 C 213.011719 209.265625 189.585938 191.863281 192.875 184.773438 C 194.949219 180.300781 208.078125 180.648438 217.703125 181.769531 C 210.21875 179.617188 199.53125 174.832031 200.171875 172.070312 C 200.769531 169.488281 216.570312 161.800781 221.558594 160.644531 C 217.140625 160.257812 198.832031 166.390625 194.269531 160.429688 C 190.007812 154.871094 218.207031 119.035156 222.3125 113.761719 C 217.472656 117.648438 188.585938 149.089844 180.359375 147.703125 C 175.15625 146.824219 175.324219 126.851562 174.707031 122.027344 C 173.433594 127.621094 171.234375 147.820312 168.1875 148.921875 C 165.175781 150.007812 156.976562 141.078125 154.585938 136.53125 C 156.164062 142.484375 159.097656 153.417969 155.671875 156.625 C 152.589844 159.503906 126.789062 146.714844 120.222656 142.667969 C 127.851562 148.574219 148.285156 165.296875 146.375 169.886719 C 144.945312 173.332031 134.035156 174.464844 127.15625 175.480469 C 136.402344 177.484375 149.101562 175.226562 149.40625 181.777344 C 149.511719 184.003906 137.390625 195.207031 131.886719 198.8125 C 134.808594 197.144531 152.527344 188.277344 154.15625 189.933594 C 156.964844 192.78125 120.761719 242.09375 115.050781 250.191406 C 123 241.34375 157.675781 201.363281 163.871094 203.828125 C 168.175781 205.546875 167.152344 215.324219 167.53125 223.722656 " fill-opacity="1" fill-rule="evenodd"/><path fill="#000000" d="M 93.316406 204.191406 C 85.902344 205.917969 85.132812 198.023438 91.871094 196.953125 L 162.296875 179.03125 L 93.316406 204.191406 " fill-opacity="1" fill-rule="evenodd"/><path fill="#fdb913" d="M 163.394531 152.585938 C 166.277344 159.511719 167.585938 164.222656 165.804688 167.78125 C 164.023438 171.339844 157.90625 173.121094 153.433594 174.613281 C 159.433594 174.613281 165.417969 175.652344 167.816406 179.164062 C 170.535156 183.144531 170.492188 191.679688 169.359375 202.257812 C 171.648438 191.511719 174.546875 182.515625 178.910156 178.914062 C 181.890625 176.457031 189.859375 176.632812 194.253906 177.375 C 190.382812 174.914062 186.003906 171.230469 184.765625 167.296875 C 183.515625 163.324219 196.914062 144.441406 200.867188 138.289062 C 196.820312 143.066406 181.3125 160.554688 175.851562 161.308594 C 171.039062 161.972656 166.65625 158.144531 163.394531 152.585938 " fill-opacity="1" fill-rule="evenodd"/><path fill="#000000" d="M 140.851562 153.679688 L 170.542969 214.800781 L 197.246094 214.210938 L 211.421875 133.953125 L 182.769531 140.539062 L 179.960938 182.585938 L 165.851562 137.945312 L 140.851562 153.679688 " fill-opacity="1" fill-rule="evenodd"/><path fill="#000000" d="M 142.289062 154.085938 L 171.230469 213.671875 L 196.304688 213.117188 L 210.03125 135.414062 L 183.824219 141.4375 L 181.070312 182.664062 C 181.035156 183.199219 180.621094 183.632812 180.09375 183.691406 C 179.570312 183.757812 179.0625 183.4375 178.898438 182.921875 L 165.222656 139.65625 Z M 170.542969 215.914062 C 170.117188 215.914062 169.726562 215.667969 169.542969 215.285156 L 139.851562 154.164062 C 139.601562 153.652344 139.777344 153.039062 140.257812 152.734375 L 165.257812 137.003906 C 165.546875 136.820312 165.910156 136.78125 166.234375 136.902344 C 166.554688 137.019531 166.808594 137.28125 166.910156 137.609375 L 179.242188 176.625 L 181.660156 140.460938 C 181.691406 139.972656 182.042969 139.5625 182.519531 139.453125 L 211.171875 132.867188 C 211.535156 132.785156 211.914062 132.886719 212.1875 133.144531 C 212.457031 133.402344 212.578125 133.777344 212.515625 134.144531 L 198.339844 214.40625 C 198.246094 214.925781 197.796875 215.308594 197.265625 215.324219 L 170.566406 215.914062 C 170.558594 215.914062 170.550781 215.914062 170.542969 215.914062 " fill-opacity="1" fill-rule="nonzero"/><path fill="#ffe100" d="M 144.824219 149.136719 L 174.511719 210.257812 L 201.210938 209.671875 L 215.390625 129.414062 L 186.738281 135.996094 L 183.925781 178.050781 L 169.816406 133.410156 L 144.824219 149.136719 " fill-opacity="1" fill-rule="evenodd"/><path fill="#000000" d="M 146.257812 149.550781 L 175.203125 209.132812 L 200.277344 208.578125 L 214 130.875 L 187.792969 136.898438 L 185.039062 178.125 C 185.003906 178.65625 184.59375 179.089844 184.0625 179.15625 C 183.535156 179.21875 183.03125 178.894531 182.867188 178.386719 L 169.191406 135.117188 Z M 174.511719 211.371094 C 174.089844 211.371094 173.699219 211.128906 173.511719 210.746094 L 143.816406 149.625 C 143.574219 149.113281 143.75 148.496094 144.230469 148.199219 L 169.226562 132.464844 C 169.519531 132.28125 169.878906 132.246094 170.203125 132.363281 C 170.527344 132.480469 170.777344 132.742188 170.878906 133.074219 L 183.210938 172.089844 L 185.625 135.925781 C 185.660156 135.433594 186.007812 135.023438 186.488281 134.914062 L 215.140625 128.328125 C 215.503906 128.242188 215.886719 128.351562 216.15625 128.609375 C 216.425781 128.863281 216.550781 129.242188 216.484375 129.605469 L 202.308594 209.867188 C 202.21875 210.386719 201.769531 210.773438 201.238281 210.785156 L 174.535156 211.371094 C 174.53125 211.371094 174.519531 211.371094 174.511719 211.371094 " fill-opacity="1" fill-rule="nonzero"/><path fill="#000000" d="M 238.265625 150.765625 C 239.660156 145.761719 232.542969 140.367188 227.742188 144.992188 C 222.804688 149.75 226.6875 154.796875 231.855469 156.726562 C 239.339844 159.515625 251.691406 160.796875 254.179688 175.378906 C 257.453125 194.617188 244.339844 207.203125 223.757812 210.296875 C 217.242188 211.277344 207.023438 208.550781 201.574219 203.972656 L 209.847656 182.089844 C 212.152344 185.015625 219.496094 188.1875 223.652344 187.5625 C 232.03125 186.304688 234.664062 181.554688 229.753906 177.328125 C 222.476562 171.066406 207.585938 168.246094 205.730469 156.335938 C 203.394531 141.371094 211.796875 131.878906 222.40625 126.796875 C 237.191406 119.710938 254.378906 130.09375 254.800781 143.363281 L 238.265625 150.765625 " fill-opacity="1" fill-rule="evenodd"/><path fill="#000000" d="M 202.5 203.722656 C 206.945312 207.214844 214.566406 209.714844 220.894531 209.714844 C 221.878906 209.714844 222.804688 209.648438 223.644531 209.527344 C 235.101562 207.800781 244.183594 203.027344 249.214844 196.066406 C 253.347656 190.355469 254.757812 183.441406 253.410156 175.507812 C 251.394531 163.671875 242.542969 160.929688 235.429688 158.726562 C 234.0625 158.300781 232.773438 157.902344 231.585938 157.457031 C 227.980469 156.109375 225.382812 153.554688 224.808594 150.789062 C 224.488281 149.246094 224.644531 146.894531 227.199219 144.429688 C 228.542969 143.136719 230.164062 142.453125 231.890625 142.453125 C 234.117188 142.453125 236.386719 143.625 237.820312 145.515625 C 238.742188 146.730469 239.222656 148.117188 239.21875 149.484375 L 253.996094 142.871094 C 253.359375 133.28125 243.644531 125.277344 232.476562 125.277344 C 229.09375 125.277344 225.816406 126.027344 222.742188 127.5 C 215.542969 130.949219 203.855469 139.269531 206.5 156.214844 C 207.707031 163.945312 214.722656 167.683594 221.511719 171.296875 C 224.785156 173.039062 227.878906 174.683594 230.261719 176.738281 C 232.5 178.660156 233.410156 180.839844 232.820312 182.871094 C 232.035156 185.597656 228.738281 187.585938 223.769531 188.335938 C 223.375 188.394531 222.957031 188.421875 222.511719 188.421875 C 218.613281 188.421875 212.964844 186.117188 210.136719 183.527344 Z M 220.894531 211.273438 C 214.03125 211.273438 205.695312 208.453125 201.070312 204.570312 C 200.816406 204.355469 200.730469 204.003906 200.84375 203.699219 L 209.121094 181.8125 C 209.21875 181.550781 209.449219 181.363281 209.730469 181.316406 C 210.011719 181.273438 210.285156 181.386719 210.457031 181.605469 C 212.476562 184.160156 218.667969 186.863281 222.511719 186.863281 C 222.878906 186.863281 223.222656 186.839844 223.535156 186.792969 C 227.8125 186.152344 230.726562 184.523438 231.324219 182.441406 C 231.734375 181.027344 230.992188 179.425781 229.246094 177.921875 C 226.992188 175.980469 223.976562 174.375 220.78125 172.675781 C 213.984375 169.054688 206.285156 164.957031 204.960938 156.453125 C 202.160156 138.511719 214.480469 129.734375 222.070312 126.09375 C 225.355469 124.519531 228.855469 123.722656 232.476562 123.722656 C 244.664062 123.722656 255.242188 132.707031 255.574219 143.339844 C 255.585938 143.65625 255.40625 143.945312 255.117188 144.078125 L 238.578125 151.476562 C 238.304688 151.597656 237.984375 151.550781 237.757812 151.355469 C 237.527344 151.160156 237.429688 150.84375 237.515625 150.554688 C 237.886719 149.222656 237.546875 147.730469 236.578125 146.457031 C 235.4375 144.949219 233.640625 144.011719 231.890625 144.011719 C 230.578125 144.011719 229.328125 144.546875 228.28125 145.554688 C 226.636719 147.136719 225.984375 148.789062 226.332031 150.472656 C 226.792969 152.683594 229.066406 154.851562 232.128906 155.996094 C 233.277344 156.425781 234.546875 156.816406 235.890625 157.234375 C 243.410156 159.566406 252.769531 162.46875 254.949219 175.25 C 256.347656 183.488281 254.804688 191.003906 250.476562 196.980469 C 245.121094 204.390625 235.921875 209.253906 223.875 211.066406 C 222.960938 211.203125 221.957031 211.273438 220.894531 211.273438 " fill-opacity="1" fill-rule="nonzero"/><g clip-path="url(#165db4cc0e)"><path fill="#000000" d="M 294.445312 107.675781 L 291.660156 114.703125 L 304.527344 121.058594 L 289.105469 123.246094 L 284.835938 138.300781 L 278.414062 124.855469 L 244.289062 131.988281 L 274.089844 115.917969 L 267.660156 102.792969 L 283.09375 110.449219 L 295.972656 103.828125 L 294.445312 107.675781 " fill-opacity="1" fill-rule="evenodd"/></g><path fill="#ffffff" d="M 293.003906 107.101562 L 289.691406 115.460938 L 299.332031 120.230469 L 287.886719 121.851562 L 284.464844 133.917969 L 279.285156 123.085938 L 254.449219 128.277344 L 276.140625 116.582031 L 271.066406 106.222656 L 283.105469 112.191406 L 293.003906 107.101562 " fill-opacity="1" fill-rule="evenodd"/><path fill="#000000" d="M 64.222656 201.554688 L 56.941406 198.128906 L 66.527344 195.378906 L 70.628906 184.347656 L 73.550781 193.839844 L 96.601562 187.714844 L 75.632812 200.515625 L 78.671875 210.070312 L 69.628906 204.640625 L 60.726562 210.910156 L 64.222656 201.554688 " fill-opacity="1" fill-rule="evenodd"/><path fill="#ffffff" d="M 61.347656 198.484375 L 66.179688 200.757812 L 63.941406 206.746094 L 69.558594 202.792969 L 75.949219 206.625 L 73.785156 199.828125 L 86.65625 191.96875 L 72.503906 195.726562 L 70.488281 189.175781 L 67.703125 196.664062 L 61.347656 198.484375 " fill-opacity="1" fill-rule="evenodd"/><path fill="#000000" d="M 109.660156 60.558594 L 113.625 50.574219 L 118.0625 63.121094 L 133.175781 67.714844 L 120.648438 72.429688 L 130.484375 102.058594 L 112.097656 75.6875 L 99.390625 80.609375 L 105.992188 67.898438 L 97.042969 56.699219 L 109.660156 60.558594 " fill-opacity="1" fill-rule="evenodd"/><path fill="#ffffff" d="M 113.539062 54.996094 L 110.574219 62.460938 L 101.386719 59.648438 L 107.835938 67.726562 L 102.671875 77.671875 L 112.671875 73.800781 L 125.648438 92.40625 L 118.703125 71.496094 L 128.347656 67.871094 L 116.859375 64.375 L 113.539062 54.996094 " fill-opacity="1" fill-rule="evenodd"/><path fill="#ffe100" d="M 242.070312 146.410156 C 243.46875 141.410156 236.347656 136.015625 231.546875 140.640625 C 226.613281 145.394531 230.496094 150.441406 235.664062 152.375 C 243.144531 155.164062 255.5 156.441406 257.984375 171.027344 C 261.257812 190.265625 248.148438 202.847656 227.566406 205.941406 C 221.046875 206.921875 210.828125 204.199219 205.378906 199.617188 L 213.65625 177.734375 C 215.960938 180.664062 223.300781 183.835938 227.457031 183.207031 C 235.839844 181.949219 238.46875 177.195312 233.5625 172.976562 C 226.285156 166.714844 211.394531 163.894531 209.535156 151.984375 C 207.203125 137.015625 215.605469 127.527344 226.210938 122.445312 C 241 115.359375 258.1875 125.742188 258.609375 139.011719 L 242.070312 146.410156 " fill-opacity="1" fill-rule="evenodd"/><path fill="#000000" d="M 206.707031 199.253906 C 211.125 202.628906 218.535156 205.023438 224.707031 205.023438 C 225.671875 205.023438 226.582031 204.964844 227.402344 204.839844 C 238.769531 203.132812 247.773438 198.402344 252.753906 191.519531 C 256.828125 185.882812 258.222656 179.046875 256.886719 171.210938 C 254.90625 159.578125 246.527344 156.980469 239.140625 154.691406 C 237.765625 154.265625 236.46875 153.863281 235.273438 153.414062 C 231.5625 152.03125 228.886719 149.378906 228.289062 146.503906 C 227.949219 144.878906 228.109375 142.40625 230.777344 139.835938 C 232.179688 138.480469 233.882812 137.765625 235.699219 137.765625 C 238.027344 137.765625 240.398438 138.992188 241.894531 140.960938 C 242.746094 142.085938 243.238281 143.355469 243.339844 144.621094 L 257.453125 138.308594 C 256.691406 128.996094 247.191406 121.257812 236.28125 121.257812 C 232.945312 121.257812 229.71875 121.996094 226.695312 123.445312 C 219.574219 126.859375 208.023438 135.078125 210.636719 151.808594 C 211.816406 159.375 218.761719 163.074219 225.480469 166.648438 C 228.765625 168.402344 231.875 170.054688 234.289062 172.128906 C 236.628906 174.144531 237.574219 176.449219 236.949219 178.613281 C 236.125 181.464844 232.726562 183.542969 227.625 184.3125 C 223.863281 184.875 217.441406 182.550781 214.085938 179.738281 Z M 224.707031 207.25 C 217.769531 207.25 209.34375 204.398438 204.664062 200.46875 C 204.300781 200.167969 204.171875 199.667969 204.339844 199.222656 L 212.617188 177.339844 C 212.757812 176.964844 213.089844 176.695312 213.488281 176.632812 C 213.886719 176.570312 214.28125 176.730469 214.527344 177.046875 C 216.3125 179.304688 222.21875 182.175781 226.316406 182.175781 C 226.667969 182.175781 226.996094 182.152344 227.296875 182.105469 C 231.375 181.496094 234.257812 179.917969 234.8125 177.996094 C 235.179688 176.714844 234.480469 175.234375 232.835938 173.820312 C 230.609375 171.90625 227.609375 170.308594 224.429688 168.613281 C 217.570312 164.960938 209.785156 160.820312 208.433594 152.152344 C 205.605469 134 218.058594 125.117188 225.734375 121.441406 C 229.0625 119.84375 232.613281 119.03125 236.28125 119.03125 C 248.644531 119.03125 259.378906 128.167969 259.71875 138.976562 C 259.734375 139.429688 259.472656 139.84375 259.058594 140.027344 L 242.527344 147.429688 C 242.132812 147.601562 241.671875 147.535156 241.34375 147.253906 C 241.015625 146.972656 240.886719 146.527344 241 146.113281 C 241.34375 144.882812 241.023438 143.496094 240.117188 142.304688 C 239.039062 140.878906 237.34375 139.992188 235.699219 139.992188 C 234.453125 139.992188 233.316406 140.480469 232.320312 141.441406 C 230.765625 142.9375 230.144531 144.488281 230.46875 146.050781 C 230.90625 148.15625 233.09375 150.226562 236.054688 151.328125 C 237.1875 151.753906 238.457031 152.144531 239.796875 152.5625 C 247.003906 154.796875 256.875 157.855469 259.082031 170.839844 C 260.5 179.167969 258.9375 186.773438 254.554688 192.824219 C 249.144531 200.304688 239.871094 205.21875 227.730469 207.042969 C 226.796875 207.183594 225.78125 207.25 224.707031 207.25 " fill-opacity="1" fill-rule="nonzero"/><path fill="#ffe100" d="M 235.152344 111.84375 L 261.683594 80.507812 L 274.734375 83.988281 Z M 235.152344 111.84375 " fill-opacity="1" fill-rule="evenodd"/><path fill="#000000" d="M 261.960938 81.390625 L 239.675781 107.703125 L 272.917969 84.3125 Z M 235.152344 112.621094 C 234.941406 112.621094 234.730469 112.53125 234.578125 112.367188 C 234.3125 112.078125 234.304688 111.636719 234.558594 111.335938 L 261.089844 80.003906 C 261.285156 79.773438 261.59375 79.675781 261.882812 79.753906 L 274.933594 83.238281 C 275.222656 83.316406 275.445312 83.554688 275.5 83.855469 C 275.554688 84.152344 275.425781 84.453125 275.179688 84.628906 L 235.601562 112.476562 C 235.464844 112.574219 235.308594 112.621094 235.152344 112.621094 " fill-opacity="1" fill-rule="nonzero"/><path fill="#ffe100" d="M 105.105469 222.371094 L 56.394531 251.089844 L 59.875 267.628906 C 59.875 267.628906 104.667969 222.371094 105.105469 222.371094 " fill-opacity="1" fill-rule="evenodd"/><g clip-path="url(#15deba8cf6)"><path fill="#000000" d="M 57.269531 251.476562 L 60.335938 266.050781 C 66.339844 259.992188 89.628906 236.484375 99.824219 226.390625 Z M 59.875 268.40625 C 59.796875 268.40625 59.726562 268.394531 59.652344 268.375 C 59.378906 268.292969 59.167969 268.066406 59.113281 267.789062 L 55.632812 251.25 C 55.5625 250.925781 55.707031 250.589844 55.996094 250.421875 L 104.710938 221.699219 C 105.175781 221.457031 105.730469 221.703125 105.859375 222.167969 C 105.949219 222.503906 105.804688 222.863281 105.503906 223.042969 C 103.816406 224.414062 72.445312 256.03125 60.425781 268.175781 C 60.277344 268.328125 60.078125 268.40625 59.875 268.40625 " fill-opacity="1" fill-rule="nonzero"/></g><path fill="#ffe100" d="M 189.484375 245.433594 L 205.578125 282.859375 L 199.488281 283.726562 Z M 189.484375 245.433594 " fill-opacity="1" fill-rule="evenodd"/><path fill="#000000" d="M 192.847656 255.226562 L 200.066406 282.859375 L 204.460938 282.230469 Z M 199.488281 284.507812 C 199.140625 284.507812 198.824219 284.273438 198.734375 283.925781 L 188.730469 245.632812 C 188.628906 245.234375 188.84375 244.828125 189.230469 244.695312 C 189.613281 244.566406 190.039062 244.75 190.199219 245.125 L 206.292969 282.546875 C 206.390625 282.773438 206.375 283.023438 206.257812 283.238281 C 206.136719 283.449219 205.929688 283.59375 205.691406 283.628906 L 199.597656 284.5 C 199.5625 284.503906 199.527344 284.507812 199.488281 284.507812 " fill-opacity="1" fill-rule="nonzero"/><path fill="#ffe100" d="M 123.375 133.164062 L 72.050781 103.570312 L 75.96875 90.953125 Z M 123.375 133.164062 " fill-opacity="1" fill-rule="evenodd"/><path fill="#000000" d="M 72.980469 103.210938 L 117.183594 128.695312 L 76.351562 92.339844 Z M 123.375 133.945312 C 123.242188 133.945312 123.109375 133.90625 122.984375 133.839844 L 71.660156 104.246094 C 71.347656 104.066406 71.199219 103.691406 71.304688 103.339844 L 75.222656 90.71875 C 75.296875 90.464844 75.5 90.273438 75.757812 90.203125 C 76.011719 90.128906 76.285156 90.191406 76.484375 90.371094 L 123.804688 132.503906 C 124.027344 132.644531 124.171875 132.886719 124.171875 133.164062 C 124.171875 133.59375 123.820312 133.945312 123.390625 133.945312 C 123.382812 133.941406 123.378906 133.945312 123.375 133.945312 " fill-opacity="1" fill-rule="nonzero"/><path fill="#ffe100" d="M 230.804688 213.667969 L 273.429688 241.082031 L 272.558594 230.640625 Z M 230.804688 213.667969 " fill-opacity="1" fill-rule="evenodd"/><path fill="#000000" d="M 238.273438 217.542969 L 272.523438 239.570312 L 271.820312 231.179688 Z M 273.429688 241.863281 C 273.28125 241.863281 273.136719 241.820312 273.007812 241.738281 L 230.382812 214.324219 C 230.046875 214.105469 229.925781 213.664062 230.109375 213.308594 C 230.296875 212.953125 230.730469 212.792969 231.097656 212.945312 L 272.851562 229.917969 C 273.121094 230.027344 273.308594 230.277344 273.335938 230.574219 L 274.203125 241.019531 C 274.226562 241.3125 274.082031 241.597656 273.824219 241.75 C 273.707031 241.824219 273.566406 241.863281 273.429688 241.863281 " fill-opacity="1" fill-rule="nonzero"/><path fill="#000000" d="M 202.097656 223.675781 L 229.496094 296.347656 L 233.847656 287.207031 Z M 202.097656 223.675781 " fill-opacity="1" fill-rule="evenodd"/><path fill="#000000" d="M 59.777344 163.175781 C 56.128906 162.75 56.546875 158.730469 60.933594 159.257812 L 142.089844 170.570312 L 59.777344 163.175781 " fill-opacity="1" fill-rule="evenodd"/></svg>